<svg width="40" height="42" viewBox="0 0 40 42" fill="none" xmlns="http://www.w3.org/2000/svg">
<path d="M37.2711 10.2699C36.9282 6.9173 36.3819 4.30691 35.5176 3.28087C31.9542 -0.937896 6.99288 -1.24663 4.1588 3.28087C3.46553 4.3901 2.97932 6.99125 2.65302 10.2755C1.60018 10.3994 0.780273 11.2858 0.780273 12.371V16.4779C0.780273 17.3912 1.35892 18.1612 2.16681 18.4616C1.97547 24.9303 2.13076 31.679 2.41731 35.0353C2.41731 37.6263 4.15788 37.1965 4.15788 37.1965H5.78937V39.9936C5.78937 41.1028 6.9328 42.0004 8.34152 42.0004C9.75209 42.0004 10.8955 41.1028 10.8955 39.9936V37.1965H29.8763V39.9936C29.8763 41.1028 31.0188 42.0004 32.4294 42.0004C33.8381 42.0004 34.9815 41.1028 34.9815 39.9936V37.1965H35.5176C35.5176 37.1965 37.566 37.4775 37.6973 36.2573C37.6973 32.9102 37.908 25.4923 37.7343 18.4903C38.593 18.2213 39.2197 17.43 39.2197 16.4779V12.371C39.2206 11.2599 38.361 10.3587 37.2711 10.2699ZM10.2549 3.88263H29.4215V6.78234H10.2549V3.88263ZM10.5286 33.8938C9.0237 33.8938 7.80447 32.6736 7.80447 31.1688C7.80447 29.6648 9.0237 28.4456 10.5286 28.4456C12.0334 28.4456 13.2536 29.6648 13.2536 31.1688C13.2536 32.6736 12.0343 33.8938 10.5286 33.8938ZM29.3189 33.8938C27.815 33.8938 26.593 32.6736 26.593 31.1688C26.593 29.6648 27.814 28.4456 29.3189 28.4456C30.8237 28.4456 32.043 29.6648 32.043 31.1688C32.0439 32.6736 30.8237 33.8938 29.3189 33.8938ZM32.7825 21.9695H6.89398V8.39072H32.7825V21.9695Z" fill="#D67C32"/>
</svg>
