<svg width="40" height="41" viewBox="0 0 40 41" fill="none" xmlns="http://www.w3.org/2000/svg">
<path d="M12.929 10.0008C12.579 10.0008 12.2324 9.85584 11.9841 9.57087C11.5324 9.04925 11.5874 8.25933 12.109 7.80771C12.389 7.5644 12.5257 7.25943 12.4957 6.94613C12.4657 6.60783 12.2374 6.29286 11.8757 6.08288C10.8025 5.46295 10.1259 4.44638 10.0159 3.29316C9.90926 2.17161 10.3592 1.08339 11.2525 0.308465C11.7741 -0.146489 12.5623 -0.0914947 13.0173 0.431786C13.4689 0.9534 13.4139 1.74332 12.8923 2.19494C12.6123 2.43825 12.4757 2.74322 12.5057 3.05652C12.5373 3.39482 12.764 3.70979 13.1273 3.91977C14.1988 4.53971 14.8754 5.55627 14.9854 6.70949C15.0921 7.83104 14.6421 8.91926 13.7489 9.69585C13.5106 9.89917 13.2206 10.0008 12.929 10.0008Z" fill="#D67C32"/>
<path d="M21.2615 10.0008C20.9115 10.0008 20.5649 9.85586 20.3166 9.57089C19.865 9.04928 19.9199 8.25936 20.4416 7.80774C20.7215 7.56443 20.8582 7.25946 20.8282 6.94616C20.7965 6.60786 20.5699 6.29289 20.2066 6.08291C19.135 5.46297 18.4584 4.44641 18.3484 3.29319C18.2418 2.17164 18.6917 1.08341 19.585 0.306825C20.1066 -0.146462 20.8948 -0.091468 21.3481 0.431813C21.7998 0.953427 21.7448 1.74335 21.2231 2.19497C20.9432 2.43828 20.8065 2.74325 20.8365 3.05655C20.8682 3.39485 21.0948 3.70982 21.4581 3.9198C22.5297 4.53973 23.2063 5.5563 23.3163 6.70951C23.4229 7.83107 22.973 8.91929 22.0797 9.69588C21.8431 9.89919 21.5531 10.0008 21.2615 10.0008Z" fill="#D67C32"/>
<path d="M28.7491 40.9978H4.58482C2.05675 40.9978 0.00195312 38.943 0.00195312 36.4149V34.7484C0.00195312 34.0585 0.561897 33.4985 1.25183 33.4985H32.0821C32.772 33.4985 33.3319 34.0585 33.3319 34.7484V36.4149C33.3319 38.943 31.2771 40.9978 28.7491 40.9978Z" fill="#D67C32"/>
<path d="M6.32132 30.832H27.0309C27.9425 29.9637 28.7491 28.9788 29.4223 27.8873C29.4657 27.8356 29.504 27.7806 29.539 27.7223C30.9305 25.3908 31.6654 22.7195 31.6654 19.9997V13.7504C31.6654 13.0604 31.1055 12.5005 30.4156 12.5005H2.91833C2.2284 12.5005 1.66846 13.0604 1.66846 13.7504V19.9997C1.66846 24.2576 3.46161 28.0989 6.32132 30.832Z" fill="#D67C32"/>
<path d="M33.3321 15.417V18.75C35.1702 18.75 36.6651 20.2448 36.6651 22.083C36.6651 22.9829 36.3218 23.8145 35.6769 24.4477C35.0636 25.0727 34.232 25.416 33.3321 25.416H32.3939C32.0189 26.5092 31.5673 27.5774 30.9707 28.5757C30.9357 28.6356 30.894 28.6906 30.854 28.749H33.3321C35.1336 28.749 36.8084 28.0507 38.0333 26.8042C39.2998 25.5593 39.9981 23.8845 39.9981 22.083C39.9981 18.4067 37.0084 15.417 33.3321 15.417Z" fill="#D67C32"/>
</svg>
