<svg width="42" height="40" viewBox="0 0 42 40" fill="none" xmlns="http://www.w3.org/2000/svg">
<path d="M31.5884 18.8323C31.1196 18.1795 30.9215 17.3605 31.063 16.5356L31.345 14.8913L30.1505 13.727C30.1323 13.7093 30.1159 13.6904 30.0983 13.6724C20.9574 21.2978 19.9177 33.5211 20.0173 39.5218C20.021 39.7405 20.1888 39.9212 20.4067 39.9415C20.6243 39.9617 20.8225 39.8149 20.8665 39.6006C23.388 27.3204 28.1566 21.5163 31.5884 18.8323Z" fill="#D67C32"/>
<path d="M13.6619 10.6319L10.9034 11.2493L9.84825 13.8718C9.82909 13.9194 9.80748 13.9655 9.78613 14.0118C14.0913 20.1024 16.3336 32.5373 17.2299 38.8012C17.251 38.9481 17.3819 39.0537 17.5299 39.0437C17.678 39.0337 17.7933 38.9113 17.7945 38.763C17.9036 25.2524 15.8368 16.238 13.7508 10.6089C13.7211 10.6163 13.692 10.6252 13.6619 10.6319Z" fill="#D67C32"/>
<path d="M32.5274 32.5076L32.1365 31.9699C31.8202 31.5348 31.6317 31.0394 31.571 30.5305C28.5621 31.333 24.0358 33.3864 22.5896 38.5801C22.5114 38.8606 22.6474 39.1565 22.9111 39.28C23.1749 39.4034 23.4893 39.3183 23.6546 39.0786C25.2327 36.7899 28.0694 33.7677 32.2999 33.1541C32.3022 33.1475 32.3039 33.1408 32.3062 33.1341L32.5274 32.5076Z" fill="#D67C32"/>
<path d="M11.0104 27.2625C10.7352 27.6473 10.3692 27.9708 9.92893 28.1998L9.33937 28.5064L9.25768 29.1659C9.23306 29.3646 9.18873 29.5568 9.12866 29.7419C11.6551 32.5956 13.5168 36.5155 14.6419 39.3301C14.7173 39.5188 14.9232 39.6199 15.1188 39.5649C15.3143 39.5097 15.4371 39.3161 15.403 39.1157C14.4068 33.2333 12.6644 29.5494 11.0104 27.2625Z" fill="#D67C32"/>
<path d="M34.285 13.9357L33.7598 16.9979C33.7388 17.1197 33.7889 17.2428 33.8889 17.3155C33.9454 17.3565 34.0125 17.3775 34.0798 17.3775C34.1315 17.3775 34.1834 17.3652 34.2308 17.3401L36.9809 15.8943L39.7309 17.3401C39.7784 17.3652 39.8302 17.3775 39.882 17.3775C39.9493 17.3775 40.0163 17.3565 40.0728 17.3155C40.1728 17.2428 40.2229 17.1197 40.202 16.9979L39.6767 13.9357L41.9016 11.767C41.9901 11.6807 42.022 11.5516 41.9838 11.4341C41.9456 11.3166 41.844 11.2309 41.7217 11.2131L38.647 10.7664L37.272 7.98033C37.2172 7.86951 37.1044 7.79932 36.9808 7.79932C36.8573 7.79932 36.7444 7.86951 36.6896 7.98033L35.3146 10.7664L32.24 11.2131C32.1176 11.2309 32.016 11.3166 31.9778 11.4341C31.9396 11.5516 31.9715 11.6807 32.0599 11.767L34.285 13.9357Z" fill="#D67C32"/>
<path d="M13.0647 7.96159C13.1853 7.93464 13.2802 7.84146 13.3093 7.72133C13.3384 7.6012 13.297 7.47506 13.2022 7.3957L9.93078 4.65859L10.331 0.412073C10.3426 0.28907 10.2832 0.170036 10.1782 0.105183C10.1259 0.0730296 10.0668 0.0568848 10.0078 0.0568848C9.94788 0.0568848 9.88809 0.0734401 9.83541 0.106414L6.22129 2.3719L2.30615 0.679147C2.26469 0.661224 2.22091 0.652467 2.1774 0.652467C2.10174 0.652467 2.0269 0.678874 1.96711 0.729634C1.87284 0.809675 1.83234 0.936234 1.86244 1.05609L2.90023 5.19329L0.080344 8.39354C-0.00133819 8.4863 -0.0233664 8.61738 0.0237001 8.73162C0.0707665 8.846 0.178582 8.92372 0.301857 8.93207L4.55727 9.22363L6.72958 12.8944C6.78827 12.9936 6.89486 13.0538 7.00897 13.0538C7.01717 13.0538 7.02538 13.0535 7.03373 13.0528C7.15701 13.0435 7.26414 12.965 7.31038 12.8504L8.90257 8.89334L13.0647 7.96159Z" fill="#D67C32"/>
<path d="M41.3532 31.2226C41.3354 31.1002 41.2496 30.9987 41.1321 30.9606L39.1318 30.3113L38.5326 28.2954C38.4974 28.1769 38.398 28.0887 38.2762 28.0679C38.2579 28.0647 38.2395 28.0632 38.2213 28.0632C38.1185 28.0632 38.0204 28.1122 37.9587 28.1972L36.723 29.8991L34.6206 29.846C34.6179 29.846 34.6152 29.8459 34.6124 29.8459C34.492 29.8459 34.3812 29.9126 34.3251 30.0195C34.2676 30.129 34.2772 30.2615 34.3499 30.3614L35.5866 32.0625L34.8863 34.0457C34.8452 34.1623 34.8738 34.292 34.9601 34.3805C35.0222 34.4442 35.1063 34.4785 35.1925 34.4785C35.2261 34.4785 35.26 34.4733 35.293 34.4626L37.293 33.812L38.9628 35.0908C39.0205 35.135 39.0902 35.1577 39.1602 35.1577C39.2092 35.1577 39.2583 35.1466 39.304 35.1242C39.4148 35.0694 39.485 34.9565 39.4849 34.8329L39.4842 32.7298L41.2164 31.537C41.3179 31.4668 41.371 31.3449 41.3532 31.2226Z" fill="#D67C32"/>
<path d="M8.66607 25.7726C8.77566 25.7156 8.84352 25.6014 8.84092 25.4777C8.83832 25.3541 8.76581 25.2427 8.65375 25.1903L6.74852 24.2996L6.40222 22.2253C6.38184 22.1034 6.29414 22.0036 6.17579 21.9679C6.14486 21.9586 6.11326 21.9541 6.08206 21.9541C5.99354 21.9541 5.90707 21.9904 5.84482 22.0571L4.40902 23.5939L2.32906 23.2822C2.31292 23.2798 2.29691 23.2787 2.2809 23.2787C2.17555 23.2787 2.07553 23.33 2.01437 23.4181C1.94377 23.5196 1.93707 23.6523 1.99686 23.7606L3.01467 25.6011L2.07553 27.4829C2.02039 27.5935 2.03271 27.7258 2.10741 27.8243C2.16953 27.9061 2.26558 27.9526 2.366 27.9526C2.38653 27.9526 2.40719 27.9507 2.42771 27.9467L4.49261 27.5475L5.99217 29.0222C6.05388 29.0829 6.13611 29.1153 6.21998 29.1153C6.25583 29.1153 6.29181 29.1095 6.3267 29.0973C6.44341 29.0566 6.52687 28.9532 6.54206 28.8306L6.80051 26.7434L8.66607 25.7726Z" fill="#D67C32"/>
<path d="M22.4683 8.16992L22.2159 7.55518L21.5663 7.41466C21.0812 7.30972 20.6431 7.09409 20.2764 6.79541C19.2296 9.57972 18.4967 13.8864 19.2675 20.3642C19.309 20.7129 19.8175 20.7088 19.8506 20.3593C20.1356 17.3544 20.8701 12.4957 22.7452 8.69257C22.6381 8.52962 22.5445 8.35545 22.4683 8.16992Z" fill="#D67C32"/>
<path d="M23.3944 0.721879L23.6068 2.81428L22.0035 4.17538C21.9092 4.25542 21.8686 4.38184 21.8987 4.50184C21.9287 4.62169 22.0242 4.71418 22.145 4.74031L24.2006 5.18498L24.9996 7.13044C25.0465 7.24482 25.1544 7.32254 25.2776 7.33102C25.2852 7.33157 25.2925 7.33184 25.2999 7.33184C25.4149 7.33184 25.5221 7.27082 25.5805 7.17053L26.6387 5.353L28.7359 5.19429C28.8592 5.18498 28.9665 5.10645 29.0126 4.99179C29.0587 4.87714 29.0358 4.7462 28.9535 4.65412L27.5519 3.08615L28.0489 1.04259C28.0782 0.922458 28.0366 0.796172 27.9418 0.716816C27.8823 0.667013 27.8081 0.641017 27.7333 0.641017C27.689 0.641017 27.6444 0.650048 27.6024 0.668655L25.678 1.51708L23.8879 0.4128C23.8357 0.38051 23.7766 0.364502 23.7175 0.364502C23.6577 0.364502 23.5977 0.381057 23.5451 0.414031C23.4404 0.479569 23.382 0.598877 23.3944 0.721879Z" fill="#D67C32"/>
</svg>
