<svg width="48" height="38" viewBox="0 0 48 38" fill="none" xmlns="http://www.w3.org/2000/svg">
<path d="M24.0005 0.890381C10.7457 0.890381 0 11.738 0 25.1195C0 32.3752 3.13127 37.1073 3.13127 37.1073L44.8597 37.1093C44.8597 37.1093 48 31.9377 48 25.119C48 11.738 37.2543 0.890381 24.0005 0.890381ZM43.0994 34.1576L4.97754 34.141C4.97754 34.141 2.94619 30.2941 2.94619 25.043C2.94619 13.3147 12.4084 3.80636 24.081 3.80636C35.7531 3.80636 45.2158 13.3142 45.2158 25.043C45.2163 30.3534 43.0994 34.1576 43.0994 34.1576Z" fill="#D67C32"/>
<path d="M30.783 7.32418L30.4817 7.32368L24.0799 19.8682L17.4477 7.21655L8.3672 30.0721H6.02051V31.9078H18.8765V30.0721H16.3256L18.8765 22.929L24.0799 31.9078L29.0795 22.929L31.6299 30.0721H29.0795V31.9078H41.8329V30.0721H39.6235L30.783 7.32418Z" fill="#D67C32"/>
</svg>
