<svg width="40" height="46" viewBox="0 0 40 46" fill="none" xmlns="http://www.w3.org/2000/svg">
<path d="M8.86694 15.5664C9.03444 17.5701 9.41908 20.3148 10.2894 23.1967C12.1378 29.3169 15.4031 33.6687 19.9997 36.1417C24.5963 33.6687 27.8616 29.3169 29.7099 23.1967C30.5803 20.3151 30.9648 17.5703 31.1325 15.5664L19.9997 10L8.86694 15.5664Z" fill="#D67C32"/>
<path d="M39.9776 10.94C39.9528 10.4628 39.6733 10.0359 39.246 9.82226L20.5931 0.495759C20.2195 0.309031 19.7799 0.309031 19.4064 0.495759L0.753477 9.82226C0.326152 10.0359 0.0466344 10.4628 0.0218671 10.94C0.00771434 11.2115 -0.299047 17.6774 1.90357 25.1843C3.20686 29.626 5.12385 33.5053 7.60129 36.7147C10.7233 40.7591 14.736 43.7342 19.5278 45.5578C19.6799 45.6156 19.8397 45.6445 19.9997 45.6445C20.1597 45.6445 20.3196 45.6156 20.4716 45.5578C25.2635 43.7343 29.2762 40.7591 32.3982 36.7147C34.8756 33.5053 36.7926 29.6259 38.0959 25.1843C40.2985 17.6774 39.9918 11.2115 39.9776 10.94ZM20.5878 39.7244C20.4025 39.816 20.2011 39.8619 19.9997 39.8619C19.7984 39.8619 19.5969 39.816 19.4117 39.7244C13.5036 36.8033 9.35473 31.5036 7.08038 23.9727C5.94285 20.2061 5.53216 16.6567 5.38798 14.3426C5.35481 13.8111 5.64264 13.3114 6.11888 13.0733L19.4065 6.42957C19.78 6.24293 20.2196 6.24284 20.5932 6.42957L33.8809 13.0733C34.3571 13.3114 34.6449 13.8112 34.6118 14.3427C34.4675 16.657 34.0568 20.2064 32.9193 23.9727C30.6447 31.5035 26.4959 36.8032 20.5878 39.7244Z" fill="#D67C32"/>
</svg>
