<svg width="48" height="48" viewBox="0 0 48 48" fill="none" xmlns="http://www.w3.org/2000/svg">
<path d="M47.0186 42.1963L43.8893 39.0669C43.2779 38.4556 42.2874 38.4556 41.6759 39.0669C41.0646 39.6778 41.0646 40.6693 41.6759 41.2802L42.1346 41.7389H12.1265L12.5851 41.2802C13.1964 40.6694 13.1964 39.6779 12.5851 39.0669C11.9737 38.4556 10.9832 38.4556 10.3717 39.0669L7.24237 42.1963C6.93534 42.5027 6.78271 42.921 6.78271 43.304C6.78271 43.6953 6.9434 44.1134 7.24237 44.4118L10.3717 47.5411C10.9832 48.1526 11.9735 48.1526 12.5851 47.5411C13.1964 46.9303 13.1964 45.9388 12.5851 45.3278L12.1265 44.8692H42.1346L41.6759 45.3278C41.0646 45.9387 41.0646 46.9302 41.6759 47.5411C42.2874 48.1526 43.2777 48.1526 43.8893 47.5411L47.0186 44.4118C47.3252 44.106 47.4783 43.6879 47.4783 43.304C47.4783 42.9024 47.3178 42.4947 47.0186 42.1963Z" fill="#D67C32"/>
<path d="M7.24154 32.8062L6.78291 33.2648V5.34362L7.24154 5.80225C7.85297 6.41368 8.84335 6.41368 9.45488 5.80225C10.0663 5.19081 10.0663 4.20044 9.45488 3.58891L6.32438 0.458507C5.71304 -0.152836 4.72248 -0.152836 4.11104 0.458507L0.980644 3.58891C0.369207 4.20034 0.369207 5.19072 0.980644 5.80225C1.59199 6.41359 2.58255 6.41359 3.19398 5.80225L3.65251 5.34362V33.2648L3.19389 32.8061C2.58255 32.1948 1.59199 32.1948 0.98055 32.8061C0.369114 33.4176 0.369114 34.4079 0.98055 35.0195L4.11095 38.1499C4.72239 38.7613 5.71276 38.7613 6.32429 38.1499L9.45469 35.0195C10.0661 34.4081 10.0661 33.4177 9.45478 32.8062C8.84344 32.1949 7.85288 32.1949 7.24154 32.8062Z" fill="#D67C32"/>
<path d="M39.6523 12.5217H47.4783V1.56525C47.4783 0.700592 46.7772 0 45.9131 0H24.5218V12.5217H32.3479C33.212 12.5217 33.9131 13.2223 33.9131 14.0869C33.9131 14.9516 33.212 15.6522 32.3479 15.6522H24.5218V20.3478C24.5218 21.2125 23.8207 21.9131 22.9566 21.9131C22.0925 21.9131 21.3913 21.2125 21.3913 20.3478V0H14.6087C13.7446 0 13.0435 0.700592 13.0435 1.56525V33.913C13.0435 34.7776 13.7446 35.4782 14.6087 35.4782H21.3913V27.6522C21.3913 26.7875 22.0925 26.0869 22.9566 26.0869C23.8207 26.0869 24.5218 26.7875 24.5218 27.6522V35.4782H45.9131C46.7772 35.4782 47.4783 34.7776 47.4783 33.913V15.6522H39.6523C38.7882 15.6522 38.087 14.9516 38.087 14.0869C38.087 13.2223 38.7881 12.5217 39.6523 12.5217Z" fill="#D67C32"/>
</svg>
