<svg width="48" height="48" viewBox="0 0 48 48" fill="none" xmlns="http://www.w3.org/2000/svg">
<path d="M4.97692 25.4062H11.8997V28.2188H9.28351L7.40486 40.8026C6.66226 44.5242 9.50776 48 13.3059 48C17.1309 48 19.9405 44.4737 19.2192 40.8698L17.3283 28.2188H14.7122V25.4062H21.635C23.0687 25.4062 24.3911 24.6894 25.1712 23.4863C25.9526 22.2847 26.0721 20.7851 25.4431 19.3802L15.8767 1.66997C15.418 0.639937 14.4334 0 13.3059 0C12.1989 0 11.2295 0.616594 10.7611 1.61503L1.12211 19.4737C0.539825 20.7851 0.659262 22.2847 1.44067 23.4864C2.22067 24.6894 3.5432 25.4062 4.97692 25.4062Z" fill="#D67C32"/>
<path d="M28.6111 21.4911C29.7209 21.5446 30.8277 21.651 31.921 21.8495C34.0853 22.256 36.1974 20.7811 36.6671 18.4273C37.1256 16.1407 35.5973 13.9328 33.275 13.5219C32.6749 13.4147 32.072 13.3255 31.4705 13.2527C30.8155 13.1717 30.3348 12.5372 30.4144 11.6556C30.4828 10.89 31.1967 10.3635 31.9676 10.465C35.1756 10.8742 38.3718 11.7105 41.3628 12.952C43.4406 13.8212 45.7518 12.9877 46.8052 10.8797C47.909 8.6722 46.8327 6.09295 44.6409 5.18058C36.7433 1.89839 27.8881 0.969704 19.4497 2.46614L27.915 18.0388C28.4349 19.19 28.6466 20.3612 28.6111 21.4911Z" fill="#D67C32"/>
</svg>
